<?xml version="1.0" standalone="no"?>
<!DOCTYPE svg PUBLIC "-//W3C//DTD SVG 1.1//EN" "http://www.w3.org/Graphics/SVG/1.1/DTD/svg11.dtd">
<svg width="512px" height="512px" version="1.1" xmlns="http://www.w3.org/2000/svg" xmlns:xlink="http://www.w3.org/1999/xlink" xml:space="preserve" style="fill-rule:evenodd;clip-rule:evenodd;stroke-linejoin:round;stroke-miterlimit:1.41421;">
    <g id="Layer_1">
        <path d="M252,480L240,304L159.3,304L159.027,303.999L158.758,303.996L158.491,303.991L158.227,303.984L157.966,303.975L157.708,303.964L157.453,303.951L157.201,303.935L156.952,303.918L156.706,303.899L156.462,303.877L156.222,303.853L155.984,303.828L155.749,303.8L155.517,303.769L155.288,303.737L155.061,303.702L154.837,303.665L154.617,303.626L154.398,303.585L154.183,303.541L153.97,303.496L153.76,303.447L153.553,303.397L153.348,303.344L153.146,303.289L153.046,303.26L152.947,303.231L152.848,303.202L152.75,303.171L152.652,303.141L152.556,303.109L152.46,303.077L152.364,303.044L152.269,303.011L152.175,302.977L152.082,302.943L151.989,302.908L151.897,302.872L151.805,302.836L151.714,302.799L151.624,302.761L151.535,302.723L151.446,302.684L151.357,302.645L151.269,302.605L151.182,302.564L151.096,302.523L151.01,302.481L150.925,302.439L150.84,302.396L150.756,302.352L150.673,302.307L150.59,302.262L150.508,302.217L150.427,302.17L150.346,302.123L150.265,302.076L150.186,302.027L150.107,301.978L150.028,301.929L149.95,301.879L149.873,301.828L149.796,301.776L149.72,301.724L149.645,301.671L149.57,301.618L149.496,301.563L149.422,301.508L149.349,301.453L149.277,301.397L149.205,301.34L149.133,301.282L149.063,301.224L148.992,301.165L148.923,301.106L148.854,301.045L148.785,300.984L148.718,300.923L148.65,300.86L148.584,300.798L148.518,300.734L148.452,300.669L148.387,300.604L148.323,300.539L148.259,300.472L148.195,300.405L148.133,300.337L148.071,300.269L148.009,300.199L147.948,300.129L147.887,300.059L147.827,299.987L147.768,299.915L147.709,299.842L147.651,299.769L147.593,299.695L147.536,299.62L147.479,299.544L147.423,299.467L147.368,299.39L147.313,299.312L147.258,299.234L147.204,299.155L147.151,299.075L147.098,298.994L147.045,298.912L146.993,298.83L146.942,298.747L146.891,298.663L146.841,298.579L146.791,298.494L146.742,298.408L146.693,298.321L146.645,298.233L146.597,298.145L146.55,298.056L146.503,297.967L146.457,297.876L146.411,297.785L146.366,297.693L146.322,297.6L146.278,297.507L146.234,297.412L146.191,297.317L146.148,297.221L146.106,297.125L146.064,297.027L146.023,296.929L145.982,296.83L145.902,296.63L145.824,296.427L145.748,296.22L145.674,296.011L145.602,295.798L145.532,295.582L145.463,295.363L145.397,295.14L145.332,294.915L145.269,294.686L145.208,294.454L145.148,294.218L145.091,293.979L145.035,293.737L144.981,293.492L144.929,293.243L144.878,292.991L144.83,292.736L144.783,292.477L144.737,292.215L144.694,291.949L144.652,291.68L144.611,291.408L144.573,291.132L144.536,290.853L144.5,290.57L144.466,290.284L144.434,289.994L144.403,289.7L144.374,289.404L144.347,289.103L144.321,288.799L144.296,288.491L144.273,288.18L144.252,287.865L144.232,287.547L144.213,287.225L144.196,286.899L144.181,286.57L144.166,286.237L144.154,285.9L144.142,285.559L144.132,285.215L144.124,284.867L144.116,284.516L144.11,284.16L144.106,283.801L144.103,283.438L144.101,283.071L144.1,282.7L144.101,282.42L144.103,282.14L144.107,281.861L144.112,281.582L144.119,281.303L144.127,281.025L144.137,280.747L144.148,280.469L144.161,280.192L144.175,279.915L144.19,279.638L144.207,279.362L144.226,279.085L144.246,278.81L144.267,278.534L144.29,278.259L144.314,277.984L144.34,277.71L144.367,277.436L144.396,277.162L144.426,276.889L144.457,276.616L144.49,276.343L144.524,276.071L144.56,275.799L144.597,275.528L144.635,275.256L144.675,274.986L144.716,274.715L144.758,274.445L144.802,274.175L144.847,273.906L144.894,273.637L144.942,273.369L144.991,273.1L145.042,272.833L145.094,272.565L145.147,272.298L145.202,272.032L145.258,271.766L145.315,271.5L145.374,271.235L145.434,270.97L145.495,270.705L145.557,270.441L145.621,270.177L145.686,269.914L145.753,269.651L145.82,269.389L145.889,269.127L145.959,268.865L146.031,268.604L146.104,268.343L146.178,268.083L146.253,267.823L146.329,267.564L146.407,267.305L146.486,267.046L146.566,266.788L146.648,266.531L146.731,266.273L146.814,266.017L146.9,265.76L146.986,265.505L147.073,265.249L147.162,264.995L147.252,264.74L147.343,264.486L147.436,264.233L147.529,263.98L147.624,263.727L147.72,263.475L147.817,263.224L147.915,262.973L148.014,262.722L148.115,262.472L148.216,262.223L148.319,261.974L148.423,261.725L148.528,261.477L148.634,261.23L148.742,260.983L148.85,260.736L148.96,260.49L149.07,260.245L149.182,260L149.295,259.755L149.409,259.511L149.524,259.268L149.64,259.025L149.757,258.783L149.876,258.541L149.995,258.3L150.115,258.059L150.237,257.819L150.36,257.579L150.483,257.34L150.608,257.101L150.734,256.863L150.86,256.626L150.988,256.389L151.117,256.153L151.247,255.917L151.378,255.682L151.51,255.447L151.642,255.213L151.776,254.98L151.911,254.747L152.047,254.514L152.184,254.283L152.322,254.051L152.461,253.821L152.601,253.591L152.742,253.361L152.883,253.132L153.026,252.904L153.17,252.677L153.314,252.449L153.46,252.223L153.607,251.997L153.754,251.772L153.903,251.547L154.052,251.323L154.202,251.1L154.353,250.877L154.506,250.655L154.659,250.433L154.813,250.213L154.967,249.992L155.123,249.773L155.28,249.554L155.437,249.335L155.596,249.117L155.755,248.9L155.915,248.684L156.076,248.468L156.238,248.253L156.401,248.038L156.564,247.824L156.729,247.611L156.894,247.399L157.06,247.187L157.227,246.975L157.395,246.765L157.564,246.555L157.733,246.346L157.903,246.137L158.074,245.929L158.246,245.722L158.419,245.515L158.592,245.31L158.767,245.104L158.942,244.9L159.118,244.696L159.294,244.493L159.472,244.291L159.65,244.089L159.829,243.888L160.008,243.688L160.189,243.488L160.37,243.289L160.552,243.091L160.735,242.894L160.918,242.697L161.102,242.501L161.287,242.306L161.473,242.111L161.659,241.917L161.846,241.724L162.034,241.532L162.222,241.34L162.411,241.149L162.601,240.959L162.792,240.769L162.983,240.581L163.175,240.393L163.367,240.205L163.56,240.019L163.754,239.833L163.949,239.648L164.144,239.464L164.34,239.281L164.536,239.098L164.733,238.916L164.931,238.735L165.13,238.555L165.329,238.375L165.528,238.196L165.728,238.018L165.929,237.841L166.131,237.665L166.333,237.489L166.535,237.314L166.739,237.14L166.943,236.967L167.147,236.794L167.352,236.623L167.558,236.452L167.764,236.282L167.97,236.112L168.178,235.944L168.386,235.776L168.594,235.609L168.803,235.443L169.012,235.278L169.222,235.114L169.433,234.95L169.644,234.788L169.855,234.626L170.068,234.465L170.28,234.304L170.493,234.145L170.707,233.986L170.921,233.829L171.136,233.672L171.351,233.516L171.566,233.361L171.782,233.206L171.999,233.053L172.216,232.9L172.433,232.749L172.651,232.598L172.87,232.448L173.088,232.299L173.308,232.15L173.527,232.003L173.748,231.856L173.968,231.711L174.189,231.566L174.411,231.422L174.632,231.279L174.855,231.137L175.077,230.996L175.3,230.856L175.524,230.716L175.748,230.578L175.972,230.44L176.197,230.303L176.422,230.168L176.647,230.033L176.873,229.899L177.099,229.766L177.325,229.633L177.552,229.502L177.779,229.372L178.007,229.242L178.235,229.114L178.463,228.987L178.691,228.86L178.92,228.734L179.149,228.61L179.379,228.486L179.609,228.363L179.839,228.241L180.069,228.12L180.3,228L180.75,227.812L180.974,227.717L181.198,227.622L181.422,227.525L181.645,227.427L181.867,227.327L182.088,227.225L182.307,227.121L182.417,227.068L182.526,227.014L182.634,226.959L182.743,226.904L182.85,226.848L182.958,226.791L183.065,226.733L183.171,226.674L183.277,226.614L183.383,226.554L183.488,226.492L183.593,226.429L183.697,226.365L183.8,226.3L183.964,226.206L184.127,226.11L184.289,226.014L184.451,225.917L184.612,225.818L184.772,225.719L184.932,225.618L185.091,225.516L185.249,225.414L185.407,225.31L185.564,225.205L185.72,225.1L185.875,224.993L186.03,224.885L186.184,224.777L186.337,224.667L186.49,224.556L186.642,224.445L186.793,224.332L186.943,224.218L187.092,224.104L187.241,223.988L187.389,223.872L187.536,223.754L187.683,223.636L187.829,223.516L187.973,223.396L188.118,223.274L188.261,223.152L188.403,223.029L188.545,222.905L188.686,222.78L188.826,222.654L188.965,222.527L189.104,222.399L189.241,222.27L189.378,222.141L189.514,222.01L189.649,221.879L189.783,221.746L189.917,221.613L190.049,221.479L190.181,221.344L190.312,221.208L190.442,221.071L190.571,220.934L190.699,220.795L190.826,220.656L190.952,220.515L191.078,220.374L191.202,220.232L191.326,220.09L191.449,219.946L191.571,219.802L191.692,219.656L191.812,219.51L191.931,219.363L192.049,219.216L192.166,219.067L192.282,218.918L192.397,218.768L192.512,218.617L192.625,218.465L192.738,218.313L192.849,218.159L192.959,218.005L193.069,217.85L193.177,217.695L193.285,217.538L193.391,217.381L193.497,217.223L193.601,217.064L193.705,216.905L193.807,216.745L193.909,216.584L194.009,216.422L194.109,216.259L194.207,216.096L194.304,215.932L194.401,215.768L194.496,215.602L194.59,215.436L194.683,215.27L194.775,215.102L194.866,214.934L194.956,214.765L195.045,214.596L195.133,214.425L195.219,214.254L195.305,214.083L195.389,213.91L195.473,213.738L195.555,213.564L195.636,213.39L195.716,213.215L195.795,213.039L195.873,212.863L195.95,212.686L196.025,212.508L196.1,212.33L196.173,212.151L196.245,211.972L196.316,211.792L196.386,211.611L196.454,211.43L196.522,211.248L196.588,211.065L196.653,210.882L196.717,210.699L196.78,210.514L196.841,210.329L196.902,210.144L196.961,209.958L197.019,209.771L197.076,209.584L197.131,209.396L197.185,209.208L197.238,209.019L197.29,208.829L197.341,208.639L197.39,208.449L197.438,208.258L197.485,208.066L197.53,207.874L197.575,207.681L197.618,207.488L197.66,207.294L197.7,207.1L216.2,89.4L216.4,83.6L216.399,83.4366L216.397,83.2747L216.393,83.1142L216.388,82.9551L216.381,82.7973L216.373,82.641L216.364,82.4859L216.353,82.3323L216.34,82.18L216.326,82.029L216.311,81.8794L216.294,81.731L216.276,81.584L216.256,81.4382L216.235,81.2938L216.212,81.1506L216.188,81.0086L216.163,80.868L216.137,80.7285L216.108,80.5903L216.079,80.4533L216.048,80.3175L216.016,80.1829L215.983,80.0494L215.948,79.9172L215.912,79.7861L215.874,79.6562L215.836,79.5274L215.795,79.3997L215.754,79.2732L215.711,79.1478L215.667,79.0234L215.622,78.9002L215.575,78.778L215.527,78.657L215.478,78.5369L215.428,78.4179L215.376,78.3L215.323,78.1831L215.269,78.0672L215.214,77.9523L215.157,77.8384L215.099,77.7254L215.04,77.6135L214.98,77.5025L214.918,77.3925L214.855,77.2834L214.792,77.1752L214.727,77.068L214.66,76.9616L214.593,76.8562L214.524,76.7516L214.454,76.648L214.384,76.5452L214.312,76.4432L214.238,76.3421L214.164,76.2418L214.089,76.1424L214.012,76.0438L213.934,75.946L213.855,75.8489L213.776,75.7527L213.695,75.6572L213.613,75.5625L213.529,75.4685L213.445,75.3753L213.36,75.2828L213.273,75.191L213.186,75.1L213.098,75.0096L213.008,74.9199L212.918,74.8309L212.826,74.7426L212.733,74.6549L212.64,74.5679L212.545,74.4815L212.45,74.3957L212.353,74.3105L212.255,74.226L212.157,74.142L212.057,74.0586L211.957,73.9758L211.855,73.8935L211.753,73.8118L211.649,73.7306L211.545,73.65L211.44,73.5699L211.334,73.4903L211.227,73.4111L211.119,73.3325L211.01,73.2543L210.9,73.1767L210.789,73.0994L210.677,73.0226L210.565,72.9463L210.452,72.8703L210.337,72.7948L210.222,72.7197L210.106,72.6449L209.989,72.5706L209.872,72.4966L209.753,72.423L209.514,72.2767L209.271,72.1318L209.025,71.9881L208.776,71.8456L208.524,71.7041L208.268,71.5636L208.01,71.4239L207.749,71.2851L207.485,71.147L207.218,71.0095L206.948,70.8726L206.675,70.7361L206.4,70.6L206.334,70.5631L206.269,70.5273L206.203,70.4925L206.138,70.4588L206.072,70.426L206.006,70.3941L205.875,70.3328L205.744,70.2744L205.613,70.2186L205.481,70.1647L205.35,70.1125L205.219,70.0615L205.088,70.0111L204.825,69.9109L204.694,69.8602L204.563,69.8084L204.431,69.7552L204.3,69.7L203.964,69.5399L203.632,69.3782L203.467,69.2968L203.303,69.215L203.14,69.1327L202.978,69.05L202.816,68.9669L202.656,68.8833L202.496,68.7993L202.338,68.7148L202.18,68.6299L202.023,68.5444L201.868,68.4585L201.713,68.3721L201.559,68.2851L201.406,68.1977L201.254,68.1097L201.103,68.0212L200.953,67.9321L200.805,67.8425L200.657,67.7523L200.51,67.6616L200.364,67.5703L200.219,67.4784L200.075,67.3859L199.932,67.2927L199.791,67.199L199.65,67.1047L199.51,67.0097L199.372,66.9141L199.234,66.8178L199.098,66.7209L198.963,66.6233L198.829,66.525L198.696,66.426L198.564,66.3264L198.433,66.226L198.303,66.1249L198.175,66.0231L198.047,65.9206L197.921,65.8173L197.796,65.7133L197.672,65.6086L197.549,65.503L197.428,65.3967L197.307,65.2896L197.188,65.1818L197.07,65.0731L196.954,64.9636L196.838,64.8533L196.724,64.7421L196.611,64.6302L196.499,64.5174L196.388,64.4037L196.279,64.2892L196.171,64.1737L196.064,64.0575L195.959,63.9403L195.855,63.8222L195.752,63.7032L195.65,63.5833L195.55,63.4625L195.451,63.3407L195.353,63.218L195.257,63.0944L195.162,62.9698L195.069,62.8442L194.976,62.7176L194.885,62.5901L194.796,62.4615L194.708,62.332L194.621,62.2014L194.536,62.0699L194.452,61.9372L194.369,61.8036L194.288,61.6689L194.208,61.5331L194.13,61.3963L194.053,61.2584L193.978,61.1194L193.904,60.9793L193.831,60.8381L193.76,60.6958L193.691,60.5524L193.623,60.4079L193.556,60.2622L193.491,60.1154L193.428,59.9674L193.365,59.8182L193.305,59.6679L193.246,59.5164L193.188,59.3637L193.133,59.2098L193.078,59.0547L193.025,58.8984L192.974,58.7408L192.924,58.582L192.876,58.422L192.83,58.2607L192.785,58.0982L192.741,57.9344L192.7,57.7693L192.66,57.6029L192.621,57.4352L192.584,57.2662L192.549,57.0959L192.515,56.9243L192.483,56.7513L192.453,56.577L192.425,56.4014L192.398,56.2244L192.372,56.046L192.349,55.8662L192.327,55.6851L192.307,55.5025L192.288,55.3186L192.272,55.1332L192.257,54.9465L192.244,54.7583L192.232,54.5686L192.222,54.3775L192.214,54.185L192.208,53.9909L192.204,53.7954L192.201,53.5985L192.2,53.4L192.201,52.93L192.205,52.467L192.211,52.0108L192.219,51.5614L192.23,51.1187L192.243,50.6828L192.258,50.2535L192.276,49.8308L192.296,49.4147L192.318,49.005L192.343,48.6018L192.37,48.2051L192.4,47.8146L192.432,47.4305L192.466,47.0526L192.502,46.6809L192.541,46.3153L192.582,45.9558L192.603,45.7784L192.625,45.6024L192.648,45.4279L192.671,45.2549L192.695,45.0835L192.719,44.9134L192.744,44.7449L192.769,44.5778L192.795,44.4122L192.822,44.2481L192.849,44.0853L192.877,43.9241L192.905,43.7642L192.934,43.6058L192.964,43.4488L192.994,43.2933L193.024,43.1391L193.055,42.9863L193.087,42.8349L193.119,42.685L193.152,42.5364L193.186,42.3891L193.22,42.2433L193.254,42.0988L193.29,41.9557L193.325,41.8139L193.362,41.6735L193.398,41.5344L193.436,41.3966L193.474,41.2602L193.512,41.1251L193.551,40.9913L193.591,40.8588L193.631,40.7276L193.672,40.5977L193.714,40.469L193.755,40.3417L193.798,40.2156L193.841,40.0908L193.885,39.9673L193.929,39.845L193.974,39.724L194.019,39.6042L194.065,39.4857L194.111,39.3684L194.158,39.2523L194.205,39.1374L194.254,39.0238L194.302,38.9113L194.351,38.8L194.401,38.69L194.451,38.5811L194.502,38.4734L194.554,38.3669L194.606,38.2615L194.658,38.1573L194.711,38.0542L194.765,37.9523L194.819,37.8516L194.874,37.752L194.929,37.6535L194.985,37.5561L195.041,37.4598L195.098,37.3647L195.155,37.2706L195.213,37.1777L195.272,37.0858L195.331,36.995L195.391,36.9053L195.451,36.8167L195.512,36.7291L195.573,36.6426L195.635,36.5572L195.697,36.4728L195.76,36.3894L195.824,36.3071L195.888,36.2258L195.952,36.1455L196.017,36.0662L196.083,35.9879L196.149,35.9107L196.216,35.8344L196.283,35.7591L196.351,35.6848L196.419,35.6115L196.488,35.5391L196.557,35.4677L196.627,35.3973L196.698,35.3278L196.769,35.2593L196.84,35.1917L196.913,35.125L196.985,35.0593L197.058,34.9944L197.132,34.9305L197.206,34.8675L197.281,34.8054L197.356,34.7441L197.432,34.6838L197.509,34.6244L197.585,34.5658L197.663,34.5081L197.741,34.4512L197.819,34.3952L197.898,34.3401L197.978,34.2858L198.058,34.2323L198.139,34.1796L198.22,34.1278L198.301,34.0768L198.384,34.0266L198.466,33.9772L198.55,33.9286L198.633,33.8808L198.718,33.8338L198.802,33.7876L198.888,33.7421L198.974,33.6974L199.06,33.6535L199.147,33.6103L199.234,33.5678L199.322,33.5261L199.411,33.4852L199.5,33.4449L199.589,33.4054L199.679,33.3666L199.77,33.3285L199.861,33.2911L199.953,33.2544L200.045,33.2184L200.137,33.1831L200.231,33.1484L200.324,33.1144L200.418,33.0811L200.513,33.0484L200.608,33.0164L200.704,32.9851L200.8,32.9543L200.897,32.9242L200.994,32.8948L201.19,32.8377L201.389,32.783L201.589,32.7307L201.791,32.6808L201.995,32.6331L202.202,32.5876L202.41,32.5443L202.62,32.5031L202.833,32.464L203.047,32.4269L203.264,32.3918L203.482,32.3586L203.702,32.3272L203.925,32.2977L204.149,32.2699L204.376,32.2439L204.604,32.2195L204.835,32.1967L205.067,32.1755L205.301,32.1558L205.538,32.1375L205.776,32.1207L206.016,32.1052L206.259,32.091L206.503,32.0781L206.749,32.0664L206.997,32.0558L207.248,32.0463L207.5,32.0379L207.754,32.0305L208.01,32.024L208.268,32.0184L208.527,32.0137L208.789,32.0097L209.318,32.0041L209.855,32.0009L210.4,32L301.7,32L302.245,32.001L302.782,32.0043L303.047,32.007L303.311,32.0104L303.573,32.0145L303.832,32.0195L304.09,32.0254L304.346,32.0321L304.6,32.0399L304.852,32.0487L305.103,32.0586L305.351,32.0696L305.597,32.0817L305.841,32.0951L306.084,32.1098L306.324,32.1258L306.562,32.1432L306.799,32.162L307.033,32.1823L307.265,32.2041L307.496,32.2275L307.724,32.2525L307.951,32.2792L308.175,32.3076L308.398,32.3378L308.618,32.3698L308.836,32.4037L309.053,32.4395L309.267,32.4773L309.48,32.5172L309.69,32.5591L309.898,32.6031L310.105,32.6494L310.309,32.6978L310.511,32.7486L310.711,32.8016L310.91,32.8571L311.106,32.9149L311.203,32.9448L311.3,32.9753L311.396,33.0064L311.492,33.0381L311.587,33.0705L311.682,33.1036L311.776,33.1373L311.869,33.1717L311.963,33.2067L312.055,33.2424L312.147,33.2788L312.239,33.3159L312.33,33.3537L312.421,33.3922L312.511,33.4314L312.6,33.4713L312.689,33.5119L312.778,33.5533L312.866,33.5954L312.953,33.6382L313.04,33.6817L313.126,33.7261L313.212,33.7711L313.298,33.817L313.382,33.8636L313.467,33.911L313.55,33.9591L313.634,34.0081L313.716,34.0579L313.799,34.1084L313.88,34.1598L313.961,34.2119L314.042,34.2649L314.122,34.3188L314.202,34.3734L314.281,34.4289L314.359,34.4852L314.437,34.5424L314.515,34.6005L314.591,34.6594L314.668,34.7192L314.744,34.7798L314.819,34.8414L314.894,34.9038L314.968,34.9671L315.042,35.0313L315.115,35.0965L315.188,35.1625L315.26,35.2295L315.331,35.2974L315.402,35.3662L315.473,35.4359L315.543,35.5067L315.612,35.5783L315.681,35.6509L315.749,35.7245L315.817,35.7991L315.884,35.8746L315.951,35.9511L316.017,36.0286L316.083,36.1071L316.148,36.1866L316.212,36.2671L316.276,36.3486L316.34,36.4311L316.403,36.5147L316.465,36.5993L316.527,36.6849L316.588,36.7716L316.649,36.8594L316.709,36.9481L316.769,37.038L316.828,37.1289L316.887,37.2209L316.945,37.314L317.002,37.4082L317.059,37.5035L317.115,37.5998L317.171,37.6973L317.226,37.7959L317.281,37.8956L317.335,37.9965L317.389,38.0984L317.442,38.2015L317.494,38.3058L317.546,38.4112L317.598,38.5178L317.649,38.6255L317.699,38.7344L317.749,38.8445L317.798,38.9557L317.846,39.0682L317.895,39.1818L317.942,39.2967L317.989,39.4127L318.035,39.53L318.081,39.6485L318.126,39.7682L318.171,39.8892L318.215,40.0114L318.259,40.1348L318.302,40.2595L318.345,40.3854L318.386,40.5126L318.428,40.6411L318.469,40.7709L318.509,40.9019L318.549,41.0342L318.588,41.1679L318.626,41.3028L318.664,41.439L318.702,41.5766L318.738,41.7154L318.775,41.8556L318.81,41.9972L318.846,42.14L318.88,42.2842L318.914,42.4298L318.948,42.5767L318.981,42.725L319.013,42.8747L319.045,43.0257L319.076,43.1781L319.106,43.3319L319.136,43.4872L319.166,43.6438L319.195,43.8018L319.223,43.9612L319.251,44.1221L319.278,44.2843L319.305,44.448L319.331,44.6132L319.356,44.7798L319.381,44.9478L319.405,45.1173L319.429,45.2883L319.452,45.4608L319.475,45.6347L319.497,45.8101L319.518,45.987L319.559,46.3453L319.598,46.7096L319.634,47.08L319.668,47.4565L319.7,47.8392L319.73,48.2282L319.757,48.6234L319.782,49.025L319.804,49.4329L319.824,49.8473L319.842,50.2682L319.857,50.6956L319.87,51.1295L319.881,51.5702L319.889,52.0175L319.895,52.4715L319.899,52.9323L319.9,53.4L319.899,53.5985L319.896,53.7954L319.892,53.9909L319.886,54.185L319.878,54.3775L319.868,54.5686L319.856,54.7583L319.843,54.9465L319.828,55.1332L319.812,55.3186L319.793,55.5025L319.773,55.6851L319.751,55.8662L319.728,56.046L319.702,56.2244L319.675,56.4014L319.647,56.577L319.617,56.7513L319.585,56.9243L319.551,57.0959L319.516,57.2662L319.479,57.4352L319.44,57.6029L319.4,57.7693L319.359,57.9344L319.315,58.0982L319.27,58.2607L319.224,58.422L319.176,58.582L319.126,58.7408L319.075,58.8984L319.022,59.0547L318.967,59.2098L318.912,59.3637L318.854,59.5164L318.795,59.6679L318.735,59.8182L318.672,59.9674L318.609,60.1154L318.544,60.2622L318.477,60.4079L318.409,60.5524L318.34,60.6958L318.269,60.8381L318.196,60.9793L318.122,61.1194L318.047,61.2584L317.97,61.3963L317.892,61.5331L317.812,61.6689L317.731,61.8036L317.648,61.9372L317.564,62.0699L317.479,62.2014L317.392,62.332L317.304,62.4615L317.215,62.5901L317.124,62.7176L317.031,62.8442L316.938,62.9698L316.843,63.0944L316.747,63.218L316.649,63.3407L316.55,63.4625L316.45,63.5833L316.348,63.7032L316.245,63.8222L316.141,63.9403L316.036,64.0575L315.929,64.1737L315.821,64.2892L315.712,64.4037L315.601,64.5174L315.489,64.6302L315.376,64.7421L315.262,64.8533L315.146,64.9636L315.03,65.0731L314.912,65.1818L314.793,65.2896L314.672,65.3967L314.551,65.503L314.428,65.6086L314.304,65.7133L314.179,65.8173L314.053,65.9206L313.925,66.0231L313.797,66.1249L313.667,66.226L313.536,66.3264L313.404,66.426L313.271,66.525L313.137,66.6233L313.002,66.7209L312.866,66.8178L312.728,66.9141L312.59,67.0097L312.45,67.1047L312.309,67.199L312.168,67.2927L312.025,67.3859L311.881,67.4784L311.736,67.5703L311.59,67.6616L311.443,67.7523L311.295,67.8425L311.147,67.9321L310.997,68.0212L310.846,68.1097L310.694,68.1977L310.541,68.2851L310.387,68.3721L310.232,68.4585L310.077,68.5444L309.92,68.6299L309.762,68.7148L309.604,68.7993L309.444,68.8833L309.284,68.9669L309.122,69.05L308.96,69.1327L308.797,69.215L308.633,69.2968L308.468,69.3782L308.136,69.5399L307.8,69.7L305.7,70.6L305.425,70.7315L305.152,70.8635L304.882,70.9961L304.615,71.1294L304.351,71.2635L304.09,71.3985L303.832,71.5344L303.576,71.6713L303.324,71.8093L303.075,71.9486L302.829,72.0891L302.586,72.231L302.347,72.3744L302.228,72.4466L302.111,72.5193L301.994,72.5924L301.878,72.6658L301.763,72.7397L301.648,72.8141L301.535,72.8888L301.423,72.9641L301.311,73.0398L301.2,73.116L301.09,73.1927L300.981,73.2699L300.873,73.3476L300.766,73.4258L300.66,73.5046L300.555,73.5839L300.451,73.6637L300.347,73.7441L300.245,73.8251L300.143,73.9067L300.043,73.9889L299.943,74.0717L299.845,74.1551L299.747,74.2391L299.65,74.3238L299.555,74.4091L299.46,74.4951L299.367,74.5817L299.274,74.6691L299.182,74.7571L299.092,74.8458L299.002,74.9353L298.914,75.0254L298.827,75.1163L298.74,75.208L298.655,75.3004L298.571,75.3936L298.487,75.4875L298.405,75.5822L298.324,75.6778L298.245,75.7741L298.166,75.8713L298.088,75.9692L298.011,76.0681L297.936,76.1677L297.862,76.2683L297.788,76.3697L297.716,76.472L297.646,76.5752L297.576,76.6793L297.507,76.7843L297.44,76.8902L297.373,76.9971L297.308,77.1049L297.245,77.2137L297.182,77.3234L297.12,77.4341L297.06,77.5458L297.001,77.6585L296.943,77.7722L296.886,77.8869L296.831,78.0027L296.777,78.1195L296.724,78.2374L296.672,78.3563L296.622,78.4763L296.573,78.5974L296.525,78.7195L296.478,78.8428L296.433,78.9672L296.389,79.0927L296.346,79.2194L296.305,79.3472L296.264,79.4761L296.226,79.6062L296.188,79.7375L296.152,79.87L296.117,80.0037L296.084,80.1386L296.052,80.2748L296.021,80.4121L295.992,80.5507L295.963,80.6906L295.937,80.8317L295.912,80.9741L295.888,81.1178L295.865,81.2627L295.844,81.409L295.824,81.5566L295.806,81.7055L295.789,81.8558L295.774,82.0074L295.76,82.1604L295.747,82.3147L295.736,82.4704L295.727,82.6275L295.719,82.7861L295.712,82.946L295.707,83.1073L295.703,83.2701L295.701,83.4343L295.7,83.6L295.9,89.4L314.4,207.1L314.44,207.294L314.482,207.488L314.525,207.681L314.57,207.874L314.615,208.066L314.662,208.258L314.71,208.449L314.759,208.639L314.81,208.829L314.862,209.019L314.915,209.208L314.969,209.396L315.024,209.584L315.081,209.771L315.139,209.958L315.198,210.144L315.259,210.329L315.32,210.514L315.383,210.699L315.447,210.882L315.512,211.065L315.578,211.248L315.646,211.43L315.714,211.611L315.784,211.792L315.855,211.972L315.927,212.151L316,212.33L316.075,212.508L316.15,212.686L316.227,212.863L316.305,213.039L316.384,213.215L316.464,213.39L316.545,213.564L316.627,213.738L316.711,213.91L316.795,214.083L316.881,214.254L316.967,214.425L317.055,214.596L317.144,214.765L317.234,214.934L317.325,215.102L317.417,215.27L317.51,215.436L317.604,215.602L317.699,215.768L317.796,215.932L317.893,216.096L317.991,216.259L318.091,216.422L318.191,216.584L318.293,216.745L318.395,216.905L318.499,217.064L318.603,217.223L318.709,217.381L318.815,217.538L318.923,217.695L319.031,217.85L319.141,218.005L319.251,218.159L319.363,218.312L319.475,218.465L319.588,218.617L319.703,218.768L319.818,218.918L319.934,219.067L320.051,219.216L320.169,219.363L320.288,219.51L320.408,219.656L320.529,219.802L320.651,219.946L320.774,220.09L320.898,220.232L321.022,220.374L321.148,220.515L321.274,220.656L321.401,220.795L321.529,220.934L321.658,221.071L321.788,221.208L321.919,221.344L322.051,221.479L322.183,221.613L322.317,221.746L322.451,221.879L322.586,222.01L322.722,222.141L322.859,222.27L322.996,222.399L323.135,222.527L323.274,222.654L323.414,222.78L323.555,222.905L323.697,223.029L323.839,223.152L323.982,223.274L324.127,223.396L324.271,223.516L324.417,223.636L324.564,223.754L324.711,223.872L324.859,223.988L325.008,224.104L325.157,224.218L325.307,224.332L325.458,224.445L325.61,224.556L325.763,224.667L325.916,224.777L326.07,224.885L326.225,224.993L326.38,225.1L326.536,225.205L326.693,225.31L326.851,225.414L327.009,225.516L327.168,225.618L327.328,225.719L327.488,225.818L327.649,225.917L327.811,226.014L327.973,226.11L328.136,226.206L328.3,226.3L328.403,226.365L328.507,226.429L328.612,226.492L328.717,226.554L328.823,226.614L328.929,226.674L329.035,226.733L329.142,226.791L329.25,226.848L329.357,226.904L329.466,226.959L329.574,227.014L329.683,227.068L329.793,227.121L330.013,227.225L330.233,227.327L330.455,227.427L330.678,227.525L330.902,227.622L331.126,227.717L331.35,227.812L331.8,228L332.031,228.12L332.261,228.241L332.491,228.363L332.721,228.486L332.951,228.61L333.18,228.734L333.409,228.86L333.637,228.987L333.865,229.114L334.093,229.242L334.321,229.372L334.548,229.502L334.775,229.633L335.001,229.766L335.227,229.899L335.453,230.033L335.678,230.168L335.903,230.303L336.128,230.44L336.352,230.578L336.576,230.716L336.8,230.856L337.023,230.996L337.245,231.137L337.468,231.279L337.689,231.422L337.911,231.566L338.132,231.711L338.352,231.856L338.573,232.003L338.792,232.15L339.012,232.299L339.23,232.448L339.449,232.598L339.667,232.749L339.884,232.9L340.101,233.053L340.318,233.206L340.534,233.361L340.749,233.516L340.964,233.672L341.179,233.829L341.393,233.986L341.607,234.145L341.82,234.304L342.032,234.465L342.245,234.626L342.456,234.788L342.667,234.95L342.878,235.114L343.088,235.278L343.297,235.443L343.506,235.609L343.714,235.776L343.922,235.944L344.13,236.112L344.336,236.282L344.542,236.452L344.748,236.623L344.953,236.794L345.157,236.967L345.361,237.14L345.565,237.314L345.767,237.489L345.969,237.665L346.171,237.841L346.372,238.018L346.572,238.196L346.771,238.375L346.97,238.555L347.169,238.735L347.367,238.916L347.564,239.098L347.76,239.281L347.956,239.464L348.151,239.648L348.346,239.833L348.54,240.019L348.733,240.205L348.925,240.393L349.117,240.581L349.308,240.769L349.499,240.959L349.689,241.149L349.878,241.34L350.066,241.532L350.254,241.724L350.441,241.917L350.627,242.111L350.813,242.306L350.998,242.501L351.182,242.697L351.365,242.894L351.548,243.091L351.73,243.289L351.911,243.488L352.092,243.688L352.271,243.888L352.45,244.089L352.628,244.291L352.806,244.493L352.982,244.696L353.158,244.9L353.333,245.104L353.508,245.31L353.681,245.515L353.854,245.722L354.026,245.929L354.197,246.137L354.367,246.346L354.536,246.555L354.705,246.765L354.873,246.975L355.04,247.187L355.206,247.399L355.371,247.611L355.536,247.824L355.699,248.038L355.862,248.253L356.024,248.468L356.185,248.684L356.345,248.9L356.504,249.117L356.663,249.335L356.82,249.554L356.977,249.773L357.133,249.992L357.288,250.213L357.441,250.433L357.594,250.655L357.747,250.877L357.898,251.1L358.048,251.323L358.197,251.547L358.346,251.772L358.493,251.997L358.64,252.223L358.786,252.449L358.93,252.677L359.074,252.904L359.217,253.132L359.358,253.361L359.499,253.591L359.639,253.821L359.778,254.051L359.916,254.283L360.053,254.514L360.189,254.747L360.324,254.98L360.458,255.213L360.59,255.447L360.722,255.682L360.853,255.917L360.983,256.153L361.112,256.389L361.24,256.626L361.366,256.863L361.492,257.101L361.617,257.34L361.74,257.579L361.863,257.819L361.985,258.059L362.105,258.3L362.224,258.541L362.343,258.783L362.46,259.025L362.576,259.268L362.691,259.511L362.805,259.755L362.918,260L363.03,260.245L363.14,260.49L363.25,260.736L363.358,260.983L363.466,261.23L363.572,261.477L363.677,261.725L363.781,261.974L363.884,262.223L363.985,262.472L364.086,262.722L364.185,262.973L364.283,263.224L364.38,263.475L364.476,263.727L364.571,263.98L364.664,264.233L364.757,264.486L364.848,264.74L364.938,264.995L365.027,265.249L365.114,265.505L365.2,265.76L365.286,266.017L365.369,266.273L365.452,266.531L365.534,266.788L365.614,267.046L365.693,267.305L365.771,267.564L365.847,267.823L365.922,268.083L365.996,268.343L366.069,268.604L366.141,268.865L366.211,269.127L366.28,269.389L366.347,269.651L366.414,269.914L366.479,270.177L366.543,270.441L366.605,270.705L366.666,270.97L366.726,271.235L366.785,271.5L366.842,271.766L366.898,272.032L366.953,272.298L367.006,272.565L367.058,272.833L367.109,273.1L367.158,273.369L367.206,273.637L367.253,273.906L367.298,274.175L367.342,274.445L367.384,274.715L367.425,274.986L367.465,275.256L367.503,275.528L367.54,275.799L367.576,276.071L367.61,276.343L367.643,276.616L367.674,276.889L367.704,277.162L367.733,277.436L367.76,277.71L367.786,277.984L367.81,278.259L367.833,278.534L367.854,278.81L367.874,279.085L367.893,279.362L367.91,279.638L367.925,279.915L367.939,280.192L367.952,280.469L367.963,280.747L367.973,281.025L367.981,281.303L367.988,281.582L367.993,281.861L367.997,282.14L367.999,282.42L368,282.7L367.999,283.087L367.997,283.469L367.994,283.848L367.99,284.222L367.984,284.591L367.976,284.957L367.968,285.318L367.958,285.675L367.946,286.028L367.934,286.376L367.919,286.721L367.904,287.061L367.887,287.397L367.868,287.729L367.848,288.057L367.827,288.381L367.804,288.701L367.779,289.017L367.753,289.329L367.726,289.637L367.697,289.941L367.666,290.241L367.634,290.538L367.6,290.83L367.564,291.118L367.527,291.403L367.489,291.684L367.448,291.961L367.406,292.234L367.363,292.504L367.317,292.769L367.27,293.031L367.222,293.29L367.171,293.544L367.119,293.795L367.065,294.043L367.009,294.286L366.952,294.526L366.892,294.763L366.831,294.996L366.768,295.225L366.703,295.451L366.637,295.674L366.568,295.893L366.498,296.108L366.426,296.32L366.352,296.529L366.276,296.734L366.237,296.836L366.198,296.936L366.158,297.036L366.118,297.135L366.077,297.233L366.036,297.33L365.994,297.427L365.952,297.522L365.909,297.617L365.866,297.711L365.822,297.804L365.778,297.896L365.734,297.988L365.689,298.078L365.643,298.168L365.597,298.257L365.55,298.345L365.503,298.433L365.455,298.52L365.407,298.605L365.358,298.691L365.309,298.775L365.259,298.858L365.209,298.941L365.158,299.023L365.107,299.104L365.055,299.185L365.002,299.264L364.949,299.343L364.896,299.421L364.842,299.498L364.788,299.575L364.732,299.651L364.677,299.726L364.621,299.8L364.564,299.874L364.507,299.946L364.449,300.018L364.391,300.09L364.332,300.16L364.273,300.23L364.213,300.299L364.152,300.367L364.091,300.435L364.029,300.502L363.967,300.568L363.905,300.634L363.841,300.698L363.777,300.762L363.713,300.825L363.648,300.888L363.582,300.95L363.516,301.011L363.45,301.071L363.382,301.131L363.315,301.19L363.246,301.249L363.177,301.306L363.108,301.363L363.037,301.419L362.967,301.475L362.895,301.53L362.823,301.584L362.751,301.637L362.678,301.69L362.604,301.742L362.53,301.794L362.455,301.845L362.38,301.895L362.304,301.944L362.227,301.993L362.15,302.041L362.072,302.089L361.993,302.136L361.914,302.182L361.835,302.228L361.754,302.272L361.673,302.317L361.592,302.36L361.51,302.403L361.427,302.446L361.344,302.487L361.26,302.528L361.175,302.569L361.09,302.609L361.004,302.648L360.918,302.687L360.831,302.724L360.743,302.762L360.654,302.799L360.565,302.835L360.476,302.87L360.386,302.905L360.295,302.939L360.203,302.973L360.111,303.006L360.018,303.039L359.925,303.071L359.831,303.102L359.736,303.133L359.64,303.163L359.544,303.193L359.35,303.25L359.153,303.305L358.954,303.358L358.752,303.408L358.547,303.457L358.34,303.503L358.13,303.547L357.917,303.589L357.702,303.628L357.483,303.666L357.263,303.701L357.039,303.734L356.812,303.766L356.583,303.795L356.351,303.822L356.116,303.847L355.878,303.87L355.638,303.891L355.394,303.911L355.148,303.928L354.899,303.943L354.647,303.957L354.392,303.968L354.134,303.978L353.873,303.986L353.609,303.992L353.342,303.997L353.073,303.999L352.8,304L272,304L260,480L252,480ZM256,281.135L257.043,280.329L261.727,277.953L266.771,276.493L272,276L339.063,276L339.046,275.937L339.009,275.808L338.971,275.678L338.934,275.55L338.896,275.423L338.856,275.295L338.816,275.165L338.776,275.038L338.734,274.909L338.692,274.779L338.649,274.651L338.606,274.524L338.562,274.395L338.517,274.265L338.471,274.136L338.425,274.007L338.378,273.879L338.33,273.749L338.282,273.62L338.233,273.492L338.184,273.364L338.133,273.234L338.081,273.104L338.03,272.975L337.977,272.845L337.923,272.715L337.869,272.587L337.815,272.459L337.759,272.327L337.703,272.198L337.646,272.07L337.588,271.94L337.529,271.809L337.471,271.68L337.411,271.552L337.35,271.421L337.289,271.291L337.227,271.163L337.164,271.032L337.101,270.902L337.037,270.773L336.972,270.644L336.907,270.515L336.84,270.385L336.773,270.254L336.705,270.125L336.637,269.996L336.568,269.866L336.498,269.737L336.427,269.607L336.357,269.479L336.285,269.35L336.211,269.219L336.138,269.089L336.065,268.962L335.989,268.832L335.914,268.702L335.837,268.574L335.761,268.445L335.683,268.316L335.605,268.187L335.526,268.059L335.446,267.929L335.365,267.801L335.285,267.673L335.203,267.544L335.12,267.415L335.038,267.289L334.954,267.161L334.869,267.032L334.783,266.903L334.697,266.776L334.612,266.65L334.525,266.523L334.436,266.394L334.347,266.267L334.258,266.14L334.168,266.014L334.078,265.888L333.987,265.761L333.895,265.634L333.803,265.509L333.709,265.382L333.615,265.256L333.521,265.131L333.426,265.005L333.329,264.88L333.233,264.755L333.137,264.631L333.039,264.506L332.94,264.381L332.841,264.257L332.742,264.134L332.642,264.01L332.541,263.886L332.44,263.763L332.338,263.641L332.235,263.517L332.132,263.395L332.028,263.273L331.924,263.152L331.818,263.029L331.713,262.908L331.607,262.787L331.5,262.666L331.393,262.546L331.286,262.426L331.177,262.305L331.068,262.186L330.959,262.067L330.848,261.948L330.738,261.829L330.627,261.711L330.515,261.592L330.402,261.474L330.29,261.357L330.176,261.24L330.062,261.123L329.949,261.008L329.833,260.891L329.718,260.776L329.603,260.662L329.486,260.546L329.368,260.431L329.251,260.317L329.133,260.203L329.015,260.09L328.897,259.977L328.777,259.865L328.658,259.753L328.537,259.64L328.417,259.529L328.296,259.419L328.175,259.309L328.052,259.198L327.93,259.088L327.807,258.98L327.683,258.87L327.56,258.762L327.437,258.655L327.311,258.547L327.187,258.44L327.062,258.334L326.936,258.227L326.81,258.122L326.684,258.017L326.557,257.913L326.429,257.808L326.302,257.705L326.175,257.602L326.046,257.499L325.917,257.396L325.789,257.295L325.66,257.194L325.529,257.093L325.4,256.994L325.27,256.894L325.14,256.795L325.009,256.696L324.878,256.598L324.747,256.501L324.614,256.403L324.483,256.307L324.351,256.212L324.219,256.117L324.086,256.022L323.953,255.928L323.82,255.834L323.686,255.741L323.553,255.649L323.419,255.556L323.285,255.465L323.151,255.375L323.017,255.284L322.882,255.195L322.747,255.105L322.611,255.017L322.477,254.929L322.342,254.842L322.206,254.755L322.071,254.67L321.935,254.584L321.798,254.499L321.662,254.415L321.527,254.332L321.391,254.249L321.254,254.166L321.117,254.084L320.98,254.003L320.845,253.923L320.708,253.844L320.571,253.764L320.434,253.686L320.297,253.608L320.16,253.53L320.023,253.454L319.886,253.378L319.767,253.313L319.471,253.185L319.058,253.003L318.613,252.802L318.137,252.582L317.666,252.359L317.366,252.213L317.093,252.078L316.81,251.936L316.52,251.788L316.224,251.634L315.923,251.474L315.612,251.306L315.296,251.131L314.973,250.949L314.642,250.759L314.307,250.562L313.967,250.358L313.942,250.342L313.854,250.292L313.809,250.263L313.761,250.236L313.44,250.045L313.119,249.852L312.801,249.657L312.484,249.46L312.169,249.262L311.854,249.06L311.541,248.858L311.229,248.653L310.919,248.446L310.612,248.238L310.304,248.027L309.998,247.814L309.694,247.599L309.391,247.382L309.09,247.163L308.791,246.944L308.493,246.721L308.195,246.496L307.901,246.271L307.606,246.042L307.314,245.812L307.025,245.58L306.735,245.346L306.448,245.111L306.162,244.873L305.877,244.633L305.594,244.392L305.313,244.149L305.035,243.905L304.757,243.659L304.48,243.409L304.206,243.16L303.933,242.908L303.661,242.653L303.391,242.397L303.124,242.14L302.857,241.881L302.593,241.62L302.328,241.356L302.067,241.092L301.809,240.827L301.551,240.559L301.295,240.289L301.041,240.018L300.788,239.745L300.537,239.47L300.287,239.192L300.039,238.914L299.796,238.637L299.551,238.354L299.308,238.069L299.068,237.786L298.83,237.5L298.593,237.211L298.358,236.922L298.125,236.63L297.894,236.337L297.666,236.044L297.438,235.747L297.212,235.449L296.989,235.15L296.766,234.848L296.546,234.545L296.328,234.241L296.113,233.936L295.899,233.63L295.687,233.321L295.476,233.01L295.268,232.698L295.061,232.384L294.857,232.07L294.655,231.754L294.454,231.435L294.256,231.116L294.06,230.796L293.865,230.472L293.674,230.151L293.483,229.824L293.295,229.498L293.109,229.17L292.925,228.84L292.744,228.51L292.564,228.178L292.386,227.844L292.21,227.508L292.037,227.172L291.866,226.835L291.697,226.496L291.529,226.153L291.365,225.814L291.202,225.47L291.042,225.125L290.884,224.78L290.728,224.433L290.574,224.084L290.422,223.734L290.273,223.384L290.126,223.031L289.981,222.679L289.839,222.325L289.699,221.969L289.56,221.611L289.425,221.252L289.292,220.894L289.161,220.534L289.033,220.173L288.906,219.81L288.782,219.444L288.661,219.08L288.542,218.713L288.425,218.346L288.311,217.979L288.199,217.609L288.09,217.24L287.983,216.868L287.878,216.495L287.776,216.123L287.676,215.747L287.579,215.371L287.484,214.995L287.392,214.618L287.303,214.241L287.216,213.862L287.131,213.48L287.049,213.1L286.847,212.134L268.24,93.7476L267.917,90.3649L267.698,84.0207L267.702,83.1799L267.707,82.7575L267.717,82.3346L267.731,81.9088L267.749,81.4828L267.771,81.0511L267.797,80.6192L267.828,80.1899L267.863,79.7551L267.903,79.3204L267.947,78.8829L267.997,78.4428L268.05,78.0029L268.109,77.5635L268.173,77.1215L268.242,76.6774L268.315,76.2338L268.395,75.7854L268.479,75.3406L268.568,74.8968L268.663,74.4485L268.764,73.9984L268.869,73.5527L268.98,73.1059L269.097,72.6549L269.219,72.2087L269.346,71.7646L269.479,71.3168L269.618,70.8714L269.762,70.4254L269.912,69.9825L270.067,69.5396L270.229,69.0968L270.394,68.6601L270.565,68.2238L270.742,67.7857L270.925,67.3516L271.111,66.9235L271.305,66.4917L271.502,66.067L271.703,65.6464L271.912,65.2224L272.124,64.8059L272.34,64.3944L272.561,63.9854L272.787,63.5786L273.018,63.1748L273.25,62.779L273.487,62.3859L273.73,61.994L273.976,61.6076L274.225,61.2269L274.476,60.8525L274.731,60.4819L274.991,60.1125L275.072,60L236.975,60L237.085,60.152L237.342,60.5154L237.595,60.8824L237.846,61.2552L238.093,61.6322L238.337,62.0136L238.578,62.401L238.815,62.7909L239.048,63.1858L239.278,63.585L239.502,63.9873L239.724,64.3949L239.94,64.8052L240.153,65.2189L240.361,65.6376L240.563,66.057L240.761,66.4798L240.955,66.9084L241.142,67.3372L241.325,67.7681L241.503,68.2034L241.675,68.6383L241.843,69.0764L242.005,69.5184L242.161,69.9588L242.312,70.4011L242.458,70.8464L242.597,71.2913L242.732,71.7373L242.861,72.1843L242.984,72.6306L243.102,73.0788L243.214,73.5274L243.321,73.9749L243.423,74.424L243.519,74.8716L243.609,75.3174L243.695,75.7642L243.775,76.2109L243.85,76.6569L243.92,77.102L243.984,77.5437L244.044,77.9858L244.099,78.4282L244.149,78.8682L244.194,79.3056L244.234,79.743L244.27,80.1792L244.301,80.6112L244.328,81.0444L244.35,81.4748L244.369,81.9022L244.383,82.3307L244.393,82.7562L244.398,83.1787L244.402,84.0185L244.183,90.3649L243.86,93.7476L225.253,212.133L225.051,213.1L224.969,213.481L224.885,213.861L224.797,214.24L224.707,214.619L224.615,214.996L224.521,215.371L224.424,215.747L224.324,216.122L224.222,216.495L224.118,216.867L224.01,217.239L223.901,217.61L223.789,217.979L223.675,218.346L223.558,218.713L223.439,219.081L223.317,219.445L223.194,219.809L223.067,220.172L222.939,220.534L222.808,220.894L222.675,221.253L222.539,221.612L222.402,221.968L222.261,222.324L222.119,222.679L221.974,223.031L221.827,223.384L221.678,223.735L221.526,224.084L221.372,224.433L221.216,224.78L221.058,225.125L220.898,225.469L220.735,225.813L220.571,226.155L220.403,226.496L220.234,226.835L220.063,227.173L219.89,227.508L219.714,227.844L219.537,228.177L219.357,228.509L219.175,228.84L218.991,229.17L218.805,229.498L218.617,229.824L218.426,230.15L218.234,230.473L218.04,230.795L217.844,231.116L217.645,231.436L217.445,231.753L217.243,232.07L217.038,232.385L216.832,232.698L216.624,233.01L216.414,233.32L216.201,233.629L215.987,233.936L215.771,234.242L215.554,234.545L215.334,234.848L215.111,235.15L214.888,235.449L214.663,235.746L214.435,236.043L214.205,236.338L213.975,236.63L213.742,236.921L213.507,237.211L213.27,237.5L213.031,237.786L212.792,238.07L212.55,238.354L212.305,238.636L212.06,238.915L211.813,239.193L211.563,239.47L211.312,239.745L211.06,240.018L210.805,240.289L210.549,240.559L210.291,240.827L210.032,241.092L209.771,241.356L209.507,241.62L209.243,241.881L208.976,242.141L208.709,242.397L208.439,242.653L208.167,242.908L207.894,243.16L207.621,243.409L207.344,243.658L207.065,243.905L206.786,244.149L206.506,244.392L206.222,244.634L205.938,244.873L205.652,245.111L205.365,245.346L205.076,245.58L204.786,245.812L204.493,246.042L204.2,246.27L203.905,246.496L203.608,246.721L203.309,246.944L203.01,247.164L202.709,247.382L202.406,247.599L202.102,247.814L201.797,248.026L201.488,248.238L201.18,248.446L200.871,248.653L200.559,248.858L200.246,249.06L199.931,249.262L199.616,249.46L199.299,249.657L198.98,249.852L198.66,250.045L198.339,250.236L198.291,250.264L198.246,250.292L198.158,250.342L198.134,250.358L197.793,250.562L197.458,250.759L197.128,250.949L196.804,251.131L196.487,251.306L196.177,251.474L195.876,251.634L195.579,251.788L195.29,251.936L195.008,252.078L194.734,252.213L194.433,252.359L193.963,252.582L193.486,252.802L193.042,253.003L192.629,253.185L192.333,253.313L192.214,253.378L192.077,253.454L191.94,253.53L191.803,253.608L191.666,253.686L191.53,253.764L191.392,253.843L191.255,253.923L191.119,254.003L190.983,254.084L190.846,254.166L190.709,254.249L190.573,254.332L190.438,254.415L190.301,254.499L190.165,254.584L190.029,254.67L189.894,254.755L189.758,254.842L189.623,254.929L189.488,255.017L189.353,255.106L189.218,255.195L189.084,255.284L188.949,255.375L188.814,255.465L188.681,255.556L188.547,255.648L188.413,255.741L188.28,255.834L188.147,255.928L188.014,256.022L187.881,256.116L187.749,256.212L187.617,256.308L187.486,256.403L187.354,256.501L187.222,256.598L187.091,256.696L186.961,256.795L186.83,256.894L186.7,256.994L186.57,257.093L186.44,257.194L186.311,257.295L186.183,257.397L186.054,257.499L185.926,257.601L185.798,257.705L185.67,257.809L185.543,257.913L185.417,258.017L185.29,258.122L185.164,258.228L185.039,258.334L184.913,258.44L184.788,258.547L184.663,258.655L184.54,258.762L184.417,258.87L184.293,258.979L184.17,259.089L184.048,259.198L183.925,259.309L183.804,259.419L183.683,259.529L183.563,259.64L183.443,259.752L183.323,259.865L183.203,259.978L183.085,260.09L182.966,260.203L182.849,260.317L182.732,260.431L182.614,260.546L182.498,260.661L182.382,260.776L182.267,260.891L182.152,261.007L182.037,261.124L181.924,261.24L181.81,261.357L181.698,261.474L181.585,261.592L181.473,261.711L181.362,261.829L181.252,261.948L181.142,262.066L181.032,262.186L180.923,262.305L180.814,262.426L180.707,262.546L180.6,262.666L180.493,262.787L180.387,262.908L180.281,263.029L180.176,263.151L180.072,263.273L179.968,263.395L179.865,263.517L179.762,263.641L179.66,263.763L179.559,263.886L179.458,264.01L179.358,264.134L179.258,264.258L179.16,264.381L179.061,264.506L178.963,264.631L178.867,264.755L178.77,264.88L178.674,265.005L178.579,265.131L178.485,265.256L178.391,265.382L178.298,265.508L178.205,265.634L178.113,265.761L178.022,265.887L177.932,266.014L177.841,266.141L177.753,266.267L177.664,266.394L177.576,266.522L177.489,266.649L177.402,266.776L177.316,266.904L177.231,267.032L177.147,267.16L177.063,267.288L176.98,267.416L176.897,267.544L176.815,267.673L176.734,267.801L176.654,267.93L176.574,268.058L176.495,268.187L176.417,268.316L176.34,268.444L176.263,268.574L176.186,268.702L176.111,268.832L176.036,268.961L175.962,269.09L175.888,269.22L175.816,269.349L175.744,269.478L175.672,269.608L175.602,269.737L175.532,269.867L175.463,269.996L175.395,270.125L175.327,270.255L175.26,270.384L175.193,270.514L175.128,270.644L175.063,270.773L174.999,270.903L174.936,271.032L174.873,271.162L174.811,271.292L174.75,271.421L174.689,271.55L174.629,271.681L174.57,271.81L174.512,271.94L174.454,272.07L174.397,272.198L174.341,272.327L174.285,272.458L174.23,272.588L174.177,272.716L174.123,272.845L174.07,272.975L174.019,273.104L173.967,273.234L173.917,273.363L173.867,273.491L173.818,273.62L173.769,273.75L173.722,273.879L173.675,274.007L173.628,274.137L173.583,274.266L173.538,274.394L173.494,274.523L173.451,274.651L173.408,274.78L173.366,274.909L173.324,275.038L173.284,275.166L173.244,275.294L173.205,275.423L173.166,275.551L173.128,275.679L173.091,275.807L173.055,275.935L173.037,276L240,276L245.229,276.493L250.273,277.953L254.957,280.329L256,281.135ZM191.585,253.631L192.178,253.383L192.216,253.363L191.905,253.496L191.585,253.631ZM320.515,253.631L320.195,253.496L319.884,253.363L319.922,253.383L320.515,253.631ZM198.016,250.424L198.158,250.342L198.2,250.317L198.016,250.424ZM314.083,250.424L313.9,250.317L313.942,250.342L314.083,250.424ZM198.2,250.317L198.291,250.264L198.481,250.144L198.2,250.317ZM313.9,250.317L313.619,250.144L313.809,250.263L313.9,250.317ZM219.513,45.8505L219.48,45.8317L219.251,45.7187L219.274,45.7305L219.513,45.8505Z" style="fill:black;"/>
    </g>
</svg>
