<?xml version="1.0" standalone="no"?>
<!DOCTYPE svg PUBLIC "-//W3C//DTD SVG 1.1//EN" "http://www.w3.org/Graphics/SVG/1.1/DTD/svg11.dtd">
<svg width="285px" height="44px" version="1.1" xmlns="http://www.w3.org/2000/svg" xmlns:xlink="http://www.w3.org/1999/xlink" xml:space="preserve" style="fill-rule:evenodd;clip-rule:evenodd;stroke-linejoin:round;stroke-miterlimit:1.41421;">
    <g>
        <g id="Layer1">
            <g>
                <path d="M19.03,36.8081C28.495,36.8081 35.6563,28.3448 35.6563,18.7797C35.6563,9.91566 28.9457,0.751186 19.0801,0.751186C9.61518,0.751186 2.4038,9.31471 2.4038,18.7797C2.4038,27.894 9.16447,36.758 19.03,36.8081ZM4.95783,18.7797C4.95783,11.0174 10.5166,3.1049 19.03,3.1049C27.1429,3.1049 33.1023,10.6168 33.1023,18.7797C33.1023,26.4918 27.5435,34.4544 19.03,34.4544C10.767,34.4544 4.95783,26.9425 4.95783,18.7797Z" style="fill:rgb(174,174,174);fill-rule:nonzero;"/>
                <path d="M54.5862,37.0585C61.6974,37.0585 66.505,30.8487 66.505,23.5872C66.505,16.7264 61.2968,10.0659 54.0854,10.0659C50.1292,10.0659 46.3231,12.4196 44.1697,15.7248L44.1697,10.5166L41.9162,10.5166L41.9162,47.2246L44.4201,47.2246L44.4201,30.9489C46.5235,34.3542 50.1292,37.0585 54.5862,37.0585ZM54.0353,34.805C49.8788,34.805 46.0727,31.7501 44.4201,27.894L44.4201,19.3305C44.8208,15.6247 49.9288,12.3195 53.5846,12.3195C59.3938,12.3195 63.951,17.6278 63.951,23.5872C63.951,29.1961 60.0448,34.805 54.0353,34.805Z" style="fill:rgb(174,174,174);fill-rule:nonzero;"/>
                <path d="M83.6321,37.0585C88.4897,37.0585 92.8967,34.3542 94.4491,30.6484L92.2457,30.0474C90.9436,33.0021 87.388,35.0554 83.7322,35.0554C78.3237,35.0554 73.8166,30.5482 73.3658,24.5387L96.252,24.5387C96.252,24.3885 96.3021,23.7876 96.3021,23.437C96.252,16.1755 90.8935,10.0659 83.5319,10.0659C76.2704,10.0659 70.7617,16.0754 70.7617,23.437C70.7617,30.8487 76.3205,37.0585 83.6321,37.0585ZM73.3158,22.5356C73.6663,16.476 78.0733,12.1191 83.5319,12.1191C89.0406,12.1191 93.3975,16.4259 93.8482,22.5356L73.3158,22.5356Z" style="fill:rgb(174,174,174);fill-rule:nonzero;"/>
                <path d="M123.044,21.5841C123.044,14.2225 120.941,10.0659 115.282,10.0659C110.625,10.0659 106.168,12.7702 104.064,16.7264L104.064,10.5166L101.761,10.5166L101.761,36.5577L104.265,36.5577L104.265,20.4323C105.617,15.825 110.124,12.3695 114.531,12.3695C118.687,12.3695 120.54,15.3242 120.54,22.0348L120.54,36.5577L123.044,36.5577L123.044,21.5841Z" style="fill:rgb(174,174,174);fill-rule:nonzero;"/>
                <path d="M127.151,34.9051C129.254,36.3574 131.808,37.1086 134.863,37.1086C146.581,37.1086 148.084,29.8972 148.084,19.0801L148.084,1.05166L141.173,1.05166L141.173,19.0801C141.173,27.0928 140.472,30.9989 134.863,30.9989C132.008,30.9989 129.605,29.9473 128.703,29.2963L127.151,34.9051Z" style="fill:rgb(255,112,110);fill-rule:nonzero;"/>
                <path d="M179.383,4.70743C176.278,2.60411 171.921,0.751186 166.964,0.751186C159.752,0.751186 153.993,4.65735 153.993,11.9188C153.993,17.3774 157.298,19.6811 164.059,21.534C169.618,23.0364 173.274,23.9378 173.274,27.0928C173.274,29.4465 171.321,30.7486 167.565,30.7486C162.156,30.7486 156.798,27.5936 155.596,26.3917L152.541,32.3511C156.647,35.2557 162.156,36.9584 167.464,36.9584C174.475,36.9584 180.635,34.0538 180.635,26.3917C180.635,19.8814 176.228,17.6779 169.217,15.8751C163.859,14.4729 161.104,13.7217 161.104,10.8171C161.104,8.26305 163.007,6.81075 166.763,6.81075C171.02,6.81075 175.427,9.31471 176.328,10.3163L179.383,4.70743Z" style="fill:rgb(255,112,110);fill-rule:nonzero;"/>
                <path d="M183.79,18.5293C183.79,27.5435 190.701,36.8582 200.567,36.8582C206.125,36.8582 212.586,33.9035 214.739,28.5952L209.08,25.34C207.478,29.1961 203.822,30.7486 200.767,30.7486C194.858,30.7486 190.751,25.0395 190.751,18.7296C190.751,13.0706 194.056,6.91091 200.617,6.91091C203.622,6.91091 207.227,8.21297 208.88,12.2193L214.188,8.56352C211.985,3.95625 207.127,0.801265 200.817,0.801265C190.05,0.801265 183.79,9.86558 183.79,18.5293Z" style="fill:rgb(255,112,110);fill-rule:nonzero;"/>
                <path d="M222.652,36.5577L225.907,27.6937L238.376,27.6937L241.632,36.5577L248.943,36.5577L234.971,1.00158L229.362,1.00158L215.34,36.5577L222.652,36.5577ZM237.124,22.8361L227.059,22.8361L232.167,8.46336L237.124,22.8361Z" style="fill:rgb(255,112,110);fill-rule:nonzero;"/>
                <path d="M265.669,36.5577C276.336,36.5577 283.197,29.4966 283.197,18.7296C283.197,8.91407 277.288,1.00158 265.669,1.00158L252.749,1.00158L252.749,36.5577L265.669,36.5577ZM276.236,18.7296C276.236,25.4402 272.48,30.4982 265.669,30.4982L259.66,30.4982L259.66,7.06115L265.669,7.06115C272.38,7.06115 276.236,11.8687 276.236,18.7296Z" style="fill:rgb(255,112,110);fill-rule:nonzero;"/>
            </g>
        </g>
    </g>
</svg>
