<?xml version="1.0" standalone="no"?>
<!DOCTYPE svg PUBLIC "-//W3C//DTD SVG 1.1//EN" "http://www.w3.org/Graphics/SVG/1.1/DTD/svg11.dtd">
<svg width="370px" height="69px" version="1.1" xmlns="http://www.w3.org/2000/svg" xmlns:xlink="http://www.w3.org/1999/xlink" xml:space="preserve" style="fill-rule:evenodd;clip-rule:evenodd;stroke-linejoin:round;stroke-miterlimit:1.41421;">
    <g>
        <g id="Layer1">
            <g>
                <path d="M366.9,2.99278C366.9,1.33991 365.56,0 363.907,0L307.29,0C305.637,0 304.298,1.33991 304.298,2.99278L304.298,20.8009C304.298,22.4537 305.637,23.7937 307.29,23.7937L363.907,23.7937C365.56,23.7937 366.9,22.4537 366.9,20.8009L366.9,2.99278Z" style="fill:rgb(127,221,252);"/>
            </g>
            <g>
                <path d="M19,57.7937C28.45,57.7937 35.6,49.3437 35.6,39.7937C35.6,30.9437 28.9,21.7937 19.05,21.7937C9.6,21.7937 2.4,30.3437 2.4,39.7937C2.4,48.8937 9.15,57.7437 19,57.7937ZM4.95,39.7937C4.95,32.0437 10.5,24.1437 19,24.1437C27.1,24.1437 33.05,31.6437 33.05,39.7937C33.05,47.4937 27.5,55.4437 19,55.4437C10.75,55.4437 4.95,47.9437 4.95,39.7937Z" style="fill:rgb(174,174,174);fill-rule:nonzero;"/>
                <path d="M54.5,58.0437C61.6,58.0437 66.4,51.8437 66.4,44.5937C66.4,37.7437 61.2,31.0937 54,31.0937C50.05,31.0937 46.25,33.4437 44.1,36.7437L44.1,31.5437L41.85,31.5437L41.85,68.1937L44.35,68.1937L44.35,51.9437C46.45,55.3437 50.05,58.0437 54.5,58.0437ZM53.95,55.7937C49.8,55.7937 46,52.7437 44.35,48.8937L44.35,40.3437C44.75,36.6437 49.85,33.3437 53.5,33.3437C59.3,33.3437 63.85,38.6437 63.85,44.5937C63.85,50.1937 59.95,55.7937 53.95,55.7937Z" style="fill:rgb(174,174,174);fill-rule:nonzero;"/>
                <path d="M83.5,58.0437C88.35,58.0437 92.75,55.3437 94.3,51.6437L92.1,51.0437C90.8,53.9937 87.25,56.0437 83.6,56.0437C78.2,56.0437 73.7,51.5437 73.25,45.5437L96.1,45.5437C96.1,45.3937 96.15,44.7937 96.15,44.4437C96.1,37.1937 90.75,31.0937 83.4,31.0937C76.15,31.0937 70.65,37.0937 70.65,44.4437C70.65,51.8437 76.2,58.0437 83.5,58.0437ZM73.2,43.5437C73.55,37.4937 77.95,33.1437 83.4,33.1437C88.9,33.1437 93.25,37.4437 93.7,43.5437L73.2,43.5437Z" style="fill:rgb(174,174,174);fill-rule:nonzero;"/>
                <path d="M122.85,42.5937C122.85,35.2437 120.75,31.0937 115.1,31.0937C110.45,31.0937 106,33.7937 103.9,37.7437L103.9,31.5437L101.6,31.5437L101.6,57.5437L104.1,57.5437L104.1,41.4437C105.45,36.8437 109.95,33.3937 114.35,33.3937C118.5,33.3937 120.35,36.3437 120.35,43.0437L120.35,57.5437L122.85,57.5437L122.85,42.5937Z" style="fill:rgb(174,174,174);fill-rule:nonzero;"/>
                <path d="M126.95,55.8937C129.05,57.3437 131.6,58.0937 134.65,58.0937C146.35,58.0937 147.85,50.8937 147.85,40.0937L147.85,22.0937L140.95,22.0937L140.95,40.0937C140.95,48.0937 140.25,51.9937 134.65,51.9937C131.8,51.9937 129.4,50.9437 128.5,50.2937L126.95,55.8937Z" style="fill:rgb(255,112,110);fill-rule:nonzero;"/>
                <path d="M179.1,25.7437C176,23.6437 171.65,21.7937 166.7,21.7937C159.5,21.7937 153.75,25.6937 153.75,32.9437C153.75,38.3937 157.05,40.6937 163.8,42.5437C169.35,44.0437 173,44.9437 173,48.0937C173,50.4437 171.05,51.7437 167.3,51.7437C161.9,51.7437 156.55,48.5937 155.35,47.3937L152.3,53.3437C156.4,56.2437 161.9,57.9437 167.2,57.9437C174.2,57.9437 180.35,55.0437 180.35,47.3937C180.35,40.8937 175.95,38.6937 168.95,36.8937C163.6,35.4937 160.85,34.7437 160.85,31.8437C160.85,29.2937 162.75,27.8437 166.5,27.8437C170.75,27.8437 175.15,30.3437 176.05,31.3437L179.1,25.7437Z" style="fill:rgb(255,112,110);fill-rule:nonzero;"/>
                <path d="M183.5,39.5437C183.5,48.5437 190.4,57.8437 200.25,57.8437C205.8,57.8437 212.25,54.8937 214.4,49.5937L208.75,46.3437C207.15,50.1937 203.5,51.7437 200.45,51.7437C194.55,51.7437 190.45,46.0437 190.45,39.7437C190.45,34.0937 193.75,27.9437 200.3,27.9437C203.3,27.9437 206.9,29.2437 208.55,33.2437L213.85,29.5937C211.65,24.9937 206.8,21.8437 200.5,21.8437C189.75,21.8437 183.5,30.8937 183.5,39.5437Z" style="fill:rgb(255,112,110);fill-rule:nonzero;"/>
                <path d="M222.3,57.5437L225.55,48.6937L238,48.6937L241.25,57.5437L248.55,57.5437L234.6,22.0437L229,22.0437L215,57.5437L222.3,57.5437ZM236.75,43.8437L226.7,43.8437L231.8,29.4937L236.75,43.8437Z" style="fill:rgb(255,112,110);fill-rule:nonzero;"/>
                <path d="M265.25,57.5437C275.9,57.5437 282.75,50.4937 282.75,39.7437C282.75,29.9437 276.85,22.0437 265.25,22.0437L252.35,22.0437L252.35,57.5437L265.25,57.5437ZM275.8,39.7437C275.8,46.4437 272.05,51.4937 265.25,51.4937L259.25,51.4937L259.25,28.0937L265.25,28.0937C271.95,28.0937 275.8,32.8937 275.8,39.7437Z" style="fill:rgb(255,112,110);fill-rule:nonzero;"/>
                <rect x="287.95" y="53.2937" width="2.2" height="4.25" style="fill:rgb(172,172,172);fill-rule:nonzero;"/>
                <path d="M308.35,58.0437C315.6,58.0437 321.1,51.8437 321.1,44.5937C321.1,37.2937 315.55,31.0937 308.35,31.0937C301.2,31.0937 295.65,37.2937 295.65,44.5937C295.65,51.8437 301.05,58.0437 308.35,58.0437ZM298.2,44.6937C298.2,38.4937 302.85,33.3437 308.35,33.3437C313.9,33.3437 318.55,38.4437 318.55,44.5437C318.55,50.7437 313.9,55.7937 308.35,55.7937C302.75,55.7937 298.2,50.8437 298.2,44.6937Z" style="fill:rgb(172,172,172);fill-rule:nonzero;"/>
                <path d="M339.3,31.4437C338.9,31.4437 338.35,31.4937 337.7,31.4937C334.35,31.8437 331.15,34.2937 329.35,37.9437L329.35,31.5437L327,31.5437L327,57.5437L329.5,57.5437L329.5,41.2937C330.9,36.7437 334.6,33.9437 339.3,33.7937L339.3,31.4437Z" style="fill:rgb(172,172,172);fill-rule:nonzero;"/>
                <path d="M354.65,57.9437C358.45,57.9437 362.3,55.6937 364.4,52.3437L364.4,58.0437C364.4,63.7437 359.95,66.6437 354.65,66.6437C350.65,66.6437 346.85,65.0437 344.8,61.5437L343.1,62.6937C345.3,66.3437 348.6,68.6937 354.65,68.6937C361.2,68.6937 366.9,65.0937 366.9,58.0437L366.9,31.5437L364.65,31.5437L364.65,37.1937C362.25,33.7937 358.95,31.0937 354.4,31.0937C347.3,31.0937 342.35,37.4937 342.35,44.5937C342.35,51.3937 347.45,57.9437 354.65,57.9437ZM355.25,55.7937C349.45,55.7937 344.85,50.5937 344.85,44.6437C344.85,39.1937 348.55,33.3437 354.8,33.3437C358.8,33.3437 362.85,36.2437 364.4,40.2437L364.4,48.7937C363.95,52.1437 359.6,55.7937 355.25,55.7937Z" style="fill:rgb(172,172,172);fill-rule:nonzero;"/>
            </g>
            <g>
                <path d="M315.27,17.8169C316.7,17.8169 318.264,17.1304 319.122,15.9671L319.16,16.749C319.198,17.3593 319.694,17.6644 320.209,17.6644C320.343,17.6644 320.514,17.6453 320.724,17.6262L320.724,16.482C320.4,16.482 320.266,16.3104 320.266,15.9481L320.266,11.4666C320.266,9.00651 318.722,7.51903 316.319,7.51903C315.003,7.51903 313.802,7.95765 312.524,8.81581L312.982,9.67397C314.069,8.91116 315.136,8.49161 316.185,8.49161C317.883,8.49161 318.97,9.59768 318.97,11.3521L318.97,12.2484C318.15,11.9242 317.043,11.7335 316.052,11.7335C313.573,11.7335 311.856,12.935 311.856,14.7848C311.856,16.4248 313.229,17.8169 315.27,17.8169ZM315.594,16.8253C313.935,16.8253 313.115,15.7192 313.115,14.6704C313.115,13.3545 314.393,12.5536 316.243,12.5536C317.139,12.5536 318.111,12.7443 318.97,13.0685L318.97,14.6894C318.97,14.9183 318.817,15.2043 318.645,15.4332C317.997,16.2913 316.738,16.8253 315.594,16.8253Z" style="fill:white;fill-rule:nonzero;"/>
                <path d="M323.146,15.8146C323.146,17.016 323.89,17.7407 325.072,17.7407C325.587,17.7407 326.388,17.5881 326.865,17.3974L326.636,16.3485C326.312,16.482 325.892,16.5583 325.606,16.5583C324.881,16.5583 324.443,16.1197 324.443,15.376L324.443,3.70499L323.146,3.70499L323.146,15.8146Z" style="fill:white;fill-rule:nonzero;"/>
                <path d="M333.215,17.8169C335.885,17.8169 337.716,15.4713 337.716,12.668C337.716,10.0172 335.732,7.51903 332.986,7.51903C331.48,7.51903 330.087,8.37719 329.287,9.61675L329.287,7.69067L328.123,7.69067L328.123,21.6882L329.42,21.6882L329.42,15.5667C330.202,16.8444 331.537,17.8169 333.215,17.8169ZM332.853,16.6727C331.365,16.6727 330.011,15.5857 329.42,14.1745L329.42,11.1233C329.63,9.78839 331.384,8.66324 332.681,8.66324C334.76,8.66324 336.381,10.5321 336.381,12.668C336.381,14.6894 334.989,16.6727 332.853,16.6727Z" style="fill:white;fill-rule:nonzero;"/>
                <path d="M348.204,11.8098C348.204,9.25442 347.346,7.51903 345.058,7.51903C343.456,7.51903 341.949,8.45347 341.148,9.94095L341.148,3.70499L339.851,3.70499L339.851,17.6262L341.148,17.6262L341.148,11.5428C341.606,9.92188 343.151,8.70139 344.619,8.70139C346.106,8.70139 346.907,9.82653 346.907,12.0768L346.907,17.6262L348.204,17.6262L348.204,11.8098Z" style="fill:white;fill-rule:nonzero;"/>
                <path d="M353.525,17.8169C354.955,17.8169 356.519,17.1304 357.377,15.9671L357.415,16.749C357.453,17.3593 357.949,17.6644 358.464,17.6644C358.597,17.6644 358.769,17.6453 358.979,17.6262L358.979,16.482C358.655,16.482 358.521,16.3104 358.521,15.9481L358.521,11.4666C358.521,9.00651 356.976,7.51903 354.574,7.51903C353.258,7.51903 352.056,7.95765 350.779,8.81581L351.236,9.67397C352.323,8.91116 353.391,8.49161 354.44,8.49161C356.137,8.49161 357.224,9.59768 357.224,11.3521L357.224,12.2484C356.404,11.9242 355.298,11.7335 354.307,11.7335C351.827,11.7335 350.111,12.935 350.111,14.7848C350.111,16.4248 351.484,17.8169 353.525,17.8169ZM353.849,16.8253C352.19,16.8253 351.37,15.7192 351.37,14.6704C351.37,13.3545 352.648,12.5536 354.497,12.5536C355.394,12.5536 356.366,12.7443 357.224,13.0685L357.224,14.6894C357.224,14.9183 357.072,15.2043 356.9,15.4332C356.252,16.2913 354.993,16.8253 353.849,16.8253Z" style="fill:white;fill-rule:nonzero;"/>
            </g>
        </g>
    </g>
</svg>
