<?xml version="1.0" standalone="no"?><!DOCTYPE svg PUBLIC "-//W3C//DTD SVG 1.1//EN" "http://www.w3.org/Graphics/SVG/1.1/DTD/svg11.dtd"><svg width="500px" height="500px" version="1.1" xmlns="http://www.w3.org/2000/svg" xmlns:xlink="http://www.w3.org/1999/xlink" xml:space="preserve" style="fill-rule:evenodd;clip-rule:evenodd;stroke-linejoin:round;stroke-miterlimit:1.41421;"><g><g id="Layer1" transform="matrix(1,0,0,1,2.89949,2.89949)"><g id="Faces"><g id="Top" transform="matrix(0.988535,0,0,0.988535,-19.8039,-19.8039)"><path d="M26.6942,27l138.246,137.941l212.169,-2.05025l135.73,-135.89l-486.146,0Z" style="fill:#ffb83f;"/></g><g id="Bottom" transform="matrix(0.988535,0,0,-0.988535,-12.7262,514.005)"><path d="M26.6942,27l138.246,137.941l212.169,-2.05025l135.73,-135.89l-486.146,0Z" style="fill:#ffb83f;"/></g><g id="Left" transform="matrix(-4.81376e-15,0.988535,0.988535,4.81376e-15,-20.1062,-19.5016)"><path d="M26.6942,27l138.246,137.941l212.169,-2.05025l135.73,-135.89l-486.146,0Z" style="fill:#ffb83f;"/></g><g id="Right" transform="matrix(4.81376e-15,0.988535,-0.988535,4.81376e-15,513.847,-19.5016)"><path d="M26.6942,27l138.246,137.941l212.169,-2.05025l135.73,-135.89l-486.146,0Z" style="fill:#ffb83f;"/></g><g id="Back" transform="matrix(0.988535,0,0,0.988535,-19.8039,-19.8039)"><rect x="164.941" y="164.941" width="212.169" height="212.169" style="fill:#ffb83f;"/></g><g id="Front" transform="matrix(0.988535,0,0,0.988535,-19.8039,-19.8039)"><path d="M27,27l486,-1.42109e-14l1.93268e-12,486l-486,0Z" style="fill:#ffb83f;"/></g></g><g id="Frame" transform="matrix(0.988535,0,0,0.988535,-19.8039,-19.8039)"><g><g transform="matrix(1,2.39667e-17,2.39667e-17,0.902149,0,1.95703)"><path d="M520,27.7593c0,-4.28532 -3.13401,-7.75925 -7,-7.75925l-486,0c-3.86599,0 -7,3.47394 -7,7.75925c0,4.28532 3.13401,7.75925 7,7.75925l486,0c3.86599,0 7,-3.47394 7,-7.75925Z" style="fill:#cc8d00;"/></g><g transform="matrix(1,2.39667e-17,2.39667e-17,0.902149,-3.19744e-14,487.957)"><path d="M520,27.7593c0,-4.28532 -3.13401,-7.75925 -7,-7.75925l-486,0c-3.86599,0 -7,3.47394 -7,7.75925c0,4.28532 3.13401,7.75925 7,7.75925l486,0c3.86599,0 7,-3.47394 7,-7.75925Z" style="fill:#cc8d00;"/></g><g transform="matrix(7.8557e-15,-1,0.902149,7.04211e-15,487.957,540)"><path d="M520,27.7593c0,-4.28532 -3.13401,-7.75925 -7,-7.75925l-486,0c-3.86599,0 -7,3.47394 -7,7.75925c0,4.28532 3.13401,7.75925 7,7.75925l486,0c3.86599,0 7,-3.47394 7,-7.75925Z" style="fill:#cc8d00;"/></g><g transform="matrix(7.8557e-15,-1,0.902149,7.04211e-15,1.95703,540)"><path d="M520,27.7593c0,-4.28532 -3.13401,-7.75925 -7,-7.75925l-486,0c-3.86599,0 -7,3.47394 -7,7.75925c0,4.28532 3.13401,7.75925 7,7.75925l486,0c3.86599,0 7,-3.47394 7,-7.75925Z" style="fill:#cc8d00;"/></g></g><g transform="matrix(3.58564e-15,-0.456439,0.902149,7.04211e-15,137.847,393.238)"><path d="M520,27.7593c0,-4.28532 -6.86621,-7.75925 -15.3361,-7.75925l-469.328,0c-8.4699,0 -15.3361,3.47394 -15.3361,7.75925c0,4.28532 6.86621,7.75925 15.3361,7.75925l469.328,0c8.4699,0 15.3361,-3.47394 15.3361,-7.75925Z" style="fill:#cc8d00;"/></g><g transform="matrix(3.58564e-15,-0.456439,0.902149,7.04211e-15,352.067,393.238)"><path d="M520,27.7593c0,-4.28532 -6.86621,-7.75925 -15.3361,-7.75925l-469.328,0c-8.4699,0 -15.3361,3.47394 -15.3361,7.75925c0,4.28532 6.86621,7.75925 15.3361,7.75925l469.328,0c8.4699,0 15.3361,-3.47394 15.3361,-7.75925Z" style="fill:#cc8d00;"/></g><g transform="matrix(0.456439,1.62164e-15,-3.16045e-15,0.902149,146.762,137.847)"><path d="M520,27.7593c0,-4.28532 -6.86621,-7.75925 -15.3361,-7.75925l-469.328,0c-8.4699,0 -15.3361,3.47394 -15.3361,7.75925c0,4.28532 6.86621,7.75925 15.3361,7.75925l469.328,0c8.4699,0 15.3361,-3.47394 15.3361,-7.75925Z" style="fill:#cc8d00;"/></g><g transform="matrix(0.285781,0.285781,-0.637915,0.637915,34.0427,-1.37342)"><path d="M520,27.7593c0,-4.28532 -7.75447,-7.75925 -17.3201,-7.75925l-465.36,0c-9.56563,0 -17.3201,3.47394 -17.3201,7.75925c0,4.28532 7.75447,7.75925 17.3201,7.75925l465.36,0c9.56563,0 17.3201,-3.47394 17.3201,-7.75925Z" style="fill:#cc8d00;"/></g><g transform="matrix(0.285781,0.285781,-0.637915,0.637915,387.052,351.636)"><path d="M520,27.7593c0,-4.28532 -7.75447,-7.75925 -17.3201,-7.75925l-465.36,0c-9.56563,0 -17.3201,3.47394 -17.3201,7.75925c0,4.28532 7.75447,7.75925 17.3201,7.75925l465.36,0c9.56563,0 17.3201,-3.47394 17.3201,-7.75925Z" style="fill:#cc8d00;"/></g><g transform="matrix(0.285781,-0.285781,0.637915,0.637915,351.636,152.948)"><path d="M520,27.7593c0,-4.28532 -7.75447,-7.75925 -17.3201,-7.75925l-465.36,0c-9.56563,0 -17.3201,3.47394 -17.3201,7.75925c0,4.28532 7.75447,7.75925 17.3201,7.75925l465.36,0c9.56563,0 17.3201,-3.47394 17.3201,-7.75925Z" style="fill:#cc8d00;"/></g><g transform="matrix(0.285781,-0.285781,0.637915,0.637915,-1.37342,505.957)"><path d="M520,27.7593c0,-4.28532 -7.75447,-7.75925 -17.3201,-7.75925l-465.36,0c-9.56563,0 -17.3201,3.47394 -17.3201,7.75925c0,4.28532 7.75447,7.75925 17.3201,7.75925l465.36,0c9.56563,0 17.3201,-3.47394 17.3201,-7.75925Z" style="fill:#cc8d00;"/></g><g transform="matrix(0.456439,1.62164e-15,-3.16045e-15,0.902149,146.762,352.067)"><path d="M520,27.7593c0,-4.28532 -6.86621,-7.75925 -15.3361,-7.75925l-469.328,0c-8.4699,0 -15.3361,3.47394 -15.3361,7.75925c0,4.28532 6.86621,7.75925 15.3361,7.75925l469.328,0c8.4699,0 15.3361,-3.47394 15.3361,-7.75925Z" style="fill:#cc8d00;"/></g></g></g></g></svg>
